<svg width="25" height="5" viewBox="0 0 25 5" fill="none" xmlns="http://www.w3.org/2000/svg">
<g id="Group 13">
<path id="Vector" d="M2.5 5C3.88071 5 5 3.88071 5 2.5C5 1.11929 3.88071 0 2.5 0C1.11929 0 0 1.11929 0 2.5C0 3.88071 1.11929 5 2.5 5Z" fill="#2F2F2F"/>
<path id="Vector_2" d="M12.5 5C13.8807 5 15 3.88071 15 2.5C15 1.11929 13.8807 0 12.5 0C11.1193 0 10 1.11929 10 2.5C10 3.88071 11.1193 5 12.5 5Z" fill="#2F2F2F"/>
<path id="Vector_3" d="M22.5 5C23.8807 5 25 3.88071 25 2.5C25 1.11929 23.8807 0 22.5 0C21.1193 0 20 1.11929 20 2.5C20 3.88071 21.1193 5 22.5 5Z" fill="#2F2F2F"/>
</g>
</svg>
